<svg xmlns="http://www.w3.org/2000/svg" xmlns:svg="http://www.w3.org/2000/svg" xmlns:xlink="http://www.w3.org/1999/xlink" id="svg2" width="392.573" height="369.37" version="1.1"><defs id="defs4"><linearGradient id="SVGID_2_" x1="115.254" x2="115.254" y1="397.282" y2="365.861" gradientUnits="userSpaceOnUse"><stop id="stop11710" offset="0" style="stop-color:#fff"/><stop id="stop11712" offset="1" style="stop-color:#000"/></linearGradient><linearGradient id="linearGradient3321" x1="115.254" x2="115.254" y1="397.282" y2="365.861" gradientUnits="userSpaceOnUse" xlink:href="#SVGID_2_"/></defs><metadata id="metadata7"/><g id="layer1" transform="translate(-110.21428,-421.86216)"><path style="fill:#000;stroke:#000;stroke-width:1;stroke-miterlimit:4;stroke-dasharray:none;stroke-dashoffset:0" id="path3177-4" d="m 340,548.07648 c 0,56.01745 -45.41112,101.42857 -101.42857,101.42857 -56.01746,0 -101.42858,-45.41112 -101.42858,-101.42857 0,-56.01746 45.41112,-101.42858 101.42858,-101.42858 C 294.58888,446.6479 340,492.05902 340,548.07648 z" transform="matrix(1.238262,0,0,1.238262,-58.985376,-130.58584)"/><path style="fill:#fff;stroke:#000;stroke-width:1;stroke-miterlimit:4;stroke-dasharray:none;stroke-dashoffset:0" id="path3177" d="m 340,548.07648 c 0,56.01745 -45.41112,101.42857 -101.42857,101.42857 -56.01746,0 -101.42858,-45.41112 -101.42858,-101.42857 0,-56.01746 45.41112,-101.42858 101.42858,-101.42858 C 294.58888,446.6479 340,492.05902 340,548.07648 z" transform="translate(-2.1428711,-3.3391449e-5)"/><path style="fill:#000;stroke:#000;stroke-width:1;stroke-miterlimit:4;stroke-dasharray:none;stroke-dashoffset:0" id="path3177-8" d="m 340,548.07648 c 0,56.01745 -45.41112,101.42857 -101.42857,101.42857 -56.01746,0 -101.42858,-45.41112 -101.42858,-101.42857 0,-56.01746 45.41112,-101.42858 101.42858,-101.42858 C 294.58888,446.6479 340,492.05902 340,548.07648 z" transform="matrix(0.77571955,0,0,0.78955412,51.364036,115.3404)"/><path style="fill:#fff;stroke:#000;stroke-width:1;stroke-miterlimit:4;stroke-dasharray:none;stroke-dashoffset:0" id="path3177-2" d="m 340,548.07648 c 0,56.01745 -45.41112,101.42857 -101.42857,101.42857 -56.01746,0 -101.42858,-45.41112 -101.42858,-101.42857 0,-56.01746 45.41112,-101.42858 101.42858,-101.42858 C 294.58888,446.6479 340,492.05902 340,548.07648 z" transform="matrix(0.52347583,0,0,0.52347583,111.54218,261.17165)"/><g id="g3347" transform="translate(-14,16)"><g id="g3342"><path id="path11699" d="m 439.08211,656.85475 c 2.91476,4.75172 1.52861,10.90435 -3.09691,13.7417 l -89.67095,55.00515 c -4.62552,2.83735 -10.73823,1.2846 -13.65299,-3.46712 L 223.26192,543.78862 c -2.91507,-4.75225 -1.5286,-10.90436 3.09693,-13.7417 l 89.67147,-55.00547 c 4.62499,-2.83703 10.73791,-1.28513 13.65299,3.46711 l 109.39933,178.34587 z"/><path style="fill:#fff;stroke:#3e3d40;stroke-width:1.2071476" id="path11705" d="m 422.55606,638.64296 c 0.88351,1.44033 0.4631,3.30441 -0.93863,4.16425 l -94.07015,57.70368 c -1.40174,0.85983 -3.25393,0.38979 -4.13744,-1.05054 L 237.68171,559.70394 c -0.8832,-1.43981 -0.46311,-3.30442 0.93863,-4.16426 l 94.07014,-57.70367 c 1.40174,-0.85984 3.25425,-0.38927 4.13744,1.05054 l 85.72814,139.75641 z"/><path id="path11716" d="m 386.84044,683.32601 c 0.32981,0.53766 0.16111,1.24169 -0.37655,1.5715 l -5.12191,3.14184 c -0.53766,0.32981 -1.2417,0.16111 -1.57151,-0.37655 l -2.88283,-4.69967 c -0.32981,-0.53766 -0.16111,-1.2417 0.37655,-1.5715 l 5.12191,-3.14184 c 0.53767,-0.32981 1.2417,-0.16112 1.57151,0.37655 l 2.88283,4.69967 z" style="fill:#fff;stroke:#707173;stroke-width:.5713374"/></g></g><path style="fill:url(#SVGID_1_)" id="path11697" d="m 500.22565,696.78316 c 4.894,7.97834 2.56597,18.30678 -5.19921,23.07003 l -112.48127,68.99726 c -7.76519,4.76325 -18.02711,2.15762 -22.92111,-5.82072 L 223.75617,561.53408 c -4.89361,-7.97769 -2.56598,-18.30677 5.19921,-23.07002 L 341.43665,469.4668 c 7.76583,-4.76365 18.0275,-2.15698 22.92111,5.82071 l 135.86789,221.49565 z"/><text style="font-size:51.98413467px;font-style:normal;font-weight:400;line-height:125%;letter-spacing:0;word-spacing:0;fill:#000;fill-opacity:1;stroke:none;font-family:Sans" id="text3233" x="182.718" y="742.284" xml:space="preserve"><tspan id="tspan3235" x="182.718" y="742.284">NFC</tspan></text><circle id="circle11714" cx="115.254" cy="359.696" r="15.71" d="m 130.964,359.69601 c 0,8.6764 -7.03361,15.71 -15.71,15.71 -8.6764,0 -15.710002,-7.0336 -15.710002,-15.71 0,-8.67639 7.033602,-15.71 15.710002,-15.71 8.67639,0 15.71,7.03361 15.71,15.71 z" transform="matrix(0.48701275,-0.29873902,0.29873902,0.48701275,218.26122,542.34591)" style="fill:url(#linearGradient3321)"/></g></svg>