<svg xmlns="http://www.w3.org/2000/svg" xmlns:svg="http://www.w3.org/2000/svg" xmlns:xlink="http://www.w3.org/1999/xlink" id="Layer_1" width="100%" height="100%" version="1.1" viewBox="0 0 725 425"><metadata id="metadata267"/><title id="title3">Santa Clara Marriott Schematic</title><style type="text/css">.room.youarehere{stroke:red;stroke-width:4px}.room text{font-size:6pt;text-anchor:middle}.room a rect{fill:#f4d9ff}.room circle,.room rect{fill:none;pointer-events:all}.room a:hover text{font-weight:700}.room a:focus circle,.room a:focus rect,.room circle:hover,.room rect:hover{fill:#6495ed}.backdrop{fill:#d9f4ff}circle.occupied,rect.occupied{fill:#ff0}.st0{fill:#231f20}.st1{stroke-width:.52}.st1,.st2,.st3,.st4{fill:none;stroke:#231f20}.st2{stroke-width:.65}.st3{stroke-width:1.04}.st4{stroke-width:2.08}.st5{fill:#fbf7c1}.st10{fill:none;stroke:#231f20}.st7{stroke-width:1.092}.st7,.st8,.st9{fill:none;stroke:#231f20}.st8{stroke-width:1.424}.st9{stroke-width:1.425}.st10{stroke-width:1.04;stroke-dasharray:4.16,2.08}</style><rect id="background" width="725" height="425" x="0" y="0" class="backdrop"/><g id="rooms" class="room"><rect id="womens-locker" width="18.53" height="16.458" x="284.42" y="107.052"/><rect id="mens-locker" width="18.842" height="16.33" x="265.578" y="107.18"/><rect id="pool-wing-west" width="53.265" height="135.672" x="111.313" y="56.301"/><rect id="pool-wing-north" width="181.901" height="48.239" x="176.636" y="58.812"/><rect id="outdoor-pools" width="91.453" height="95.692" x="164.074" y="107.052"/><rect id="toilets-1" width="18.844" height="20.937" x="284.42" y="123.51"/><rect id="fitness-center" width="20.937" height="46.896" x="234.591" y="107.6"/><rect id="mbe-business-center" width="28.977" height="28.142" x="329.561" y="108.559"/><rect id="boardroom-2nd-floor" width="28.662" height="20.099" x="329.561" y="88.46"/><rect id="registration" width="63.982" height="18.089" x="329.561" y="137.368"/><rect id="gift-shop" width="37.856" height="22.989" x="265.24" y="144.446"/><rect id="courtyard-wing-east" width="62.81" height="116.242" x="181.494" y="265.336"/><rect id="courtyard-wing-south" width="144.214" height="50.247" x="17.851" y="318.098"/><rect id="courtyard-wing-west" width="53.512" height="100.278" x="29.661" y="202.744"/><rect id="courtyard-wing-north" width="120.598" height="50.416" x="100.761" y="204.535"/><rect id="courtyard" width="98.321" height="62.643" x="83.173" y="254.951"/><a target="_parent" title="Sedona" xlink:href="../locations/sedona"><rect id="sedona" width="100" height="19" x="549" y="358.6"/><text x="569" y="368">Sedona</text></a><a id="a25" target="_parent" title="Monterey" xlink:href="../locations/monterey"><rect id="monterey" width="20.434" height="22.278" x="221.693" y="203.027"/><text x="199" y="215">Monterey</text></a><a id="a28" target="_parent" title="Sequoia" xlink:href="../locations/sequoia"><rect id="sequoia" width="20.77" height="22.444" x="242.127" y="202.861"/><text x="263" y="200">Sequoia</text></a><a id="a31" target="_parent" title="Sierra" xlink:href="../locations/sierra"><rect id="sierra" width="20.435" height="22.108" x="242.127" y="232.506"/><text x="259" y="263">Sierra</text></a><a id="a34" target="_parent" title="Ponderosa" xlink:href="../locations/ponderosa"><rect id="ponderosa" width="20.769" height="22.108" x="221.358" y="232.506"/><text x="198" y="245">Ponderosa</text></a><a id="a37" target="_parent" title="Seattle" xlink:href="../locations/seattle"><rect id="seattle" width="39.862" height="23.784" x="289.362" y="311.899"/><text id="text40" x="309" y="320">Seattle</text></a><a id="a42" target="_parent" title="Portland" xlink:href="../locations/portland"><rect id="portland" width="39.529" height="23.784" x="289.695" y="335.684"/><text id="text45" x="309" y="344">Portland</text></a><a id="a47" target="_parent" title="Santa Barbara" xlink:href="../locations/santa-barbara"><rect id="santa-barbara" width="39.529" height="22.445" x="289.695" y="359.468"/><text id="text50" x="309" y="368">Santa …</text></a><a id="a52" target="_parent" title="Newport Beach" xlink:href="../locations/newport-beach"><rect id="newport-beach" width="40.198" height="24.119" x="289.362" y="381.913"/><text id="text55" x="309" y="390">Newpo…</text></a><a id="a57" target="_parent" title="Prospector Suite A" xlink:href="../locations/prospector-suite-a"><rect id="prospector-suite-a" width="19.764" height="23.95" x="356.359" y="391.628"/><text x="376" y="423" style="text-align:center;text-anchor:middle">Prospector</text></a><a id="a60" target="_parent" title="Prospector Suite B" xlink:href="../locations/prospector-suite-b"><rect id="prospector-suite-b" width="20.102" height="24.662" x="376.123" y="391.084"/></a><a id="a63" target="_parent" title="Grand Ballroom E" xlink:href="../locations/grand-ballroom-e"><rect id="grand-ballroom-e" width="39.865" height="22.443" x="356.359" y="358.129"/><text id="text66" x="376" y="367">G.B. E</text></a><a id="a68" target="_parent" title="Grand Ballroom D" xlink:href="../locations/grand-ballroom-d"><rect id="grand-ballroom-d" width="38.775" height="23.449" x="356.359" y="334.68"/><text id="text71" x="376" y="343">G.B. D</text></a><a id="a73" target="_parent" title="Grand Ballroom C" xlink:href="../locations/grand-ballroom-c"><rect id="grand-ballroom-c" width="38.273" height="22.78" x="356.861" y="311.899"/><text id="text76" x="376" y="320">G.B. C</text></a><a id="a78" target="_parent" title="Grand Ballroom B" xlink:href="../locations/grand-ballroom-b"><rect id="grand-ballroom-b" width="38.943" height="23.784" x="356.191" y="288.115"/><text id="text81" x="376" y="297">G.B. B</text></a><a id="a83" target="_parent" title="Grand Ballroom A" xlink:href="../locations/grand-ballroom-a"><rect id="grand-ballroom-a" width="39.781" height="22.779" x="356.023" y="265.336"/><text id="text86" x="376" y="274">G.B. A</text></a><rect id="marquis-tower" width="58.957" height="46.897" x="357.365" y="200.349"/><a id="a89" target="_parent" title="Characters Sports Bar and Grill" xlink:href="../locations/chracters-sports-bar-and-grill"><rect id="chracters-sports-bar-and-grill" width="33.834" height="45.852" x="416.322" y="201.395"/><text id="text92" x="432" y="210">Bar</text></a><a id="a94" target="_parent" title="Parcel 104 Restaurant" xlink:href="../locations/parcel-104-restaurant"><rect id="parcel-104-restaurant" width="98.154" height="75.372" x="450.156" y="200.349"/><text id="text97" x="499" y="210">Parcel 104 Restaurant</text></a><rect id="receiving" width="21.773" height="46.563" x="484.66" y="346.068"/><rect id="human-resources" width="13.734" height="38.523" x="518.16" y="349.419"/><rect id="sales-catering-office" width="101.166" height="18.088" x="548.309" y="359.134"/><a id="a102" target="_parent" title="California Ballroom 9" xlink:href="../locations/california-ballroom-9"><rect id="california-ballroom-9" width="25.793" height="25.46" x="548.645" y="318.599"/><text id="text105" x="561" y="328">9</text></a><a id="a107" target="_parent" title="California Ballroom 8" xlink:href="../locations/california-ballroom-8"><rect id="california-ballroom-8" width="29.145" height="26.13" x="574.438" y="318.599"/><text id="text110" x="587" y="328">8</text></a><a id="a112" target="_parent" title="California Ballroom 7" xlink:href="../locations/california-ballroom-7"><rect id="california-ballroom-7" width="29.479" height="26.466" x="603.582" y="318.599"/><text id="text115" x="616" y="328">7</text></a><a id="a117" target="_parent" title="California Ballroom 6" xlink:href="../locations/california-ballroom-6"><rect id="california-ballroom-6" width="84.416" height="38.188" x="548.311" y="280.41"/><text id="text120" x="590" y="290">California BallRoom</text><text id="text122" x="590" y="300">6</text></a><a id="a124" target="_parent" title="California Ballroom 5" xlink:href="../locations/california-ballroom-5"><rect id="california-ballroom-5" width="84.082" height="21.104" x="548.645" y="259.306"/><text id="text127" x="590" y="268">5</text></a><a id="a129" target="_parent" title="California Ballroom 4" xlink:href="../locations/california-ballroom-4"><rect id="california-ballroom-4" width="84.75" height="19.765" x="548.311" y="239.541"/><text id="text132" x="590" y="248">4</text></a><a id="a134" target="_parent" title="California Ballroom 3" xlink:href="../locations/california-ballroom-3"><rect id="california-ballroom-3" width="27.803" height="25.124" x="604.924" y="214.417"/><text id="text137" x="616" y="223">3</text></a><a id="a139" target="_parent" title="California Ballroom 2" xlink:href="../locations/california-ballroom-2"><rect id="california-ballroom-2" width="29.145" height="24.454" x="575.779" y="214.417"/><text id="text142" x="587" y="223">2</text></a><a id="a144" target="_parent" title="California Ballroom 1" xlink:href="../locations/california-ballroom-1"><rect id="california-ballroom-1" width="25.797" height="25.459" x="549.982" y="213.412"/><text id="text147" x="561" y="223">1</text></a><a id="a149" target="_parent" title="California Ballroom Registration desk" xlink:href="../locations/california-ballroom-registration-desk"><rect id="california-ballroom-registration-desk" width="82.072" height="21.271" x="567.402" y="178.405"/><text id="text152" x="608" y="187">California Ballroom <tspan id="tspan154" x="608" y="197">Registration</tspan></text></a><rect id="executive-tower" width="40.201" height="91.451" x="410.961" y="27.827"/><rect id="starbucks" width="51.924" height="13.735" x="266.582" y="179.242"/><rect id="lobby" width="120.091" height="43.213" x="318.339" y="156.464"/><rect id="hotel-entrance" width="19.514" height="9.38" x="438.43" y="156.464"/><rect id="toilets-2" width="38.859" height="91.788" x="290.701" y="200.348"><title>Restooms</title></rect><rect id="toilets-3" width="22.111" height="45.96" x="649.977" y="225.497"><title>Restooms</title></rect><rect id="toilets-4" width="22.111" height="50.334" x="649.977" y="290.254"><title>Restooms</title></rect><circle id="parking-6" cx="98.05" cy="386.604" r="7.538"><title>Parking</title></circle><circle id="parking-5_1_" cx="92.162" cy="131.436" r="7.537"><title>Parking</title></circle><circle id="parking-4_1_" cx="192.266" cy="43.108" r="7.537"><title>Parking</title></circle><circle id="parking-3_1_" cx="690.824" cy="349.309" r="7.537"><title>Parking</title></circle><circle id="parking-2_1_" cx="631.939" cy="154.99" r="7.537"><title>Parking</title></circle><circle id="parking-1_1_" cx="587.5" cy="72.08" r="7.537"><title>Parking</title></circle><rect id="stairs-1" width="12.395" height="19.933" x="424.697" y="7.895"><title>Stairs</title></rect><rect id="stairs-2" width="15.914" height="12.896" x="410.627" y="95.662"><title>Stairs</title></rect><rect id="stairs-3" width="8.373" height="10.721" x="329.561" y="137.368"><title>Stairs</title></rect><rect id="stairs-4" width="8.855" height="14.32" x="302.95" y="107.052"><title>Stairs</title></rect><rect id="stairs-5" width="13.567" height="18.592" x="150.507" y="88.46"><title>Stairs</title></rect><rect id="stairs-6" width="8.373" height="15.745" x="270.603" y="206.377"><title>Stairs</title></rect><rect id="stairs-7" width="18.09" height="14.615" x="311.471" y="268.81"><title>Stairs</title></rect><rect id="stairs-8" width="12.396" height="18.425" x="222.362" y="280.41"><title>Stairs</title></rect><rect id="stairs-9" width="15.412" height="17.418" x="213.652" y="381.578"><title>Stairs</title></rect><rect id="stairs-10" width="17.499" height="16.331" x="97.244" y="238.201"><title>Stairs</title></rect><rect id="stairs-11" width="16.58" height="15.074" x="21.371" y="350.758"><title>Stairs</title></rect><rect id="elevator-1" width="19.43" height="14.739" x="431.732" y="104.539"><title>Elevator</title></rect><rect id="elevator-2" width="19.096" height="12.813" x="369.734" y="194.432"><title>Elevator</title></rect><rect id="elevator-3" width="20.435" height="14.404" x="181.494" y="280.745"><title>Elevator</title></rect><rect id="elevator-4" width="19.598" height="14.069" x="57.547" y="303.022"><title>Elevator</title></rect></g><g id="building"><path id="path3093" d="M396.225,265.336h-40.201v115.236h40.201V265.336z M549.982,213.412h83.078v131.652h-84.082 M548.311,377.893V200.349H388.938 M369.842,200.349h-12.477v47.568h91.619 M547.975,275.721h-97.818v-74.326 M523.52,349.419 h-5.359v38.523h13.734v-38.523h-5.445 M506.434,346.068H484.66v46.563h21.773V346.068z" class="st4"/><path id="path3095" d="M395.973,358.129h-39.613 M395.135,334.68h-39.612 M396.475,311.899h-39.613 M395.805,288.115 h-39.613" class="st9"/><path id="path3097" d="M311.471,291.129v-51.588h-29.479l-3.517,3.518 M290.701,238.871v-38.523h38.859v209.704 l5.025,3.015 M329.561,406.032h-40.198v-94.133h39.861 M289.695,381.913h39.865 M289.695,359.468h39.529 M289.695,335.684h39.529 M396.225,391.628h-39.865v24.118h39.865V391.628L396.225,391.628z M349.323,413.066l7.37-3.685 M416.322,247.246v-46.229 M329.561,292.136h-12.396l-3.349,3.351 M320.18,285.101v-17.42" class="st4"/><path id="path3099" d="M329.561,283.425h-18.09v-4.02h18.09v-4.354h-18.09v-3.687h18.09" class="st3"/><path id="path3101" d="M219.684,265.671h10.719l13.901,21.272v94.635h-33.331 M229.064,398.996h-18.09 M211.644,412.73 l6.868-6.867v-6.531 M201.594,405.361h-20.1V280.745h20.435v14.404H181.83 M194.56,280.076v-15.075h11.724 M236.098,280.41h-15.411 M236.601,289.455h-15.411 M236.601,298.835h-15.411 M226.717,389.617h-15.073" class="st4"/><path id="path3103" d="M225.041,381.578v17.754h-4.018v-17.419h-3.685v17.419h-3.687v-17.754 M234.759,280.41v18.425 h-4.356V280.41h-4.02v18.09h-4.021v-18.09" class="st3"/><path id="path3105" d="M262.562,232.506h-41.203v22.445h41.203V232.506z M262.896,202.861h-41.203v22.444h41.203 V202.861z M278.976,222.122v-15.41 M270.603,221.787v-15.41" class="st4"/><path id="path3107" d="M278.976,219.777h-8.373v-3.351h8.373v-3.351h-8.373v-3.351h8.71" class="st3"/><path id="path3109" d="M242.127,254.614v-21.772 M242.127,224.466v-21.438 M245.478,202.023v-9.715h11.056v-27.137 M303.097,179.913h15.409v13.064h-51.924v-13.735 M549.982,190.297H438.432v-24.453h27.805c0,0,10.385,0.669,18.76-4.689 c8.373-5.36,24.789-18.09,24.789-18.09 M497.85,125.526l-30.273,19.212c0,0-4.355,3.686-5.359,7.705 c-1.006,4.021-4.689,4.355-8.377,4.021c-3.684-0.335-15.41,0-15.41,0v-27.136l2.682-2.679 M441.111,122.629l-2.848-2.847 M410.961,110.233V27.827h40.201v91.451h-57.619v36.179h-63.982V88.46h28.662 M426.371,110.233V94.154 M418.332,109.898V94.154 M431.732,118.944v-14.405h19.094" class="st4"/><path id="path3111" d="M520.83,133.973c11.057,11.598,25.596,16.099,36.07,10c13.188-7.678,14.945-29.241,3.928-48.167 s-30.639-28.043-43.826-20.368c-13.186,7.678-14.945,29.241-3.928,48.167c0.344,0.59,0.695,1.17,1.055,1.74 M508.818,61.307 c-18.461,10.748-23.738,42.578-8.312,69.074c15.426,26.493,45.709,37.624,64.17,26.875c18.459-10.747,23.736-42.576,8.312-69.073 C557.564,61.688,527.279,50.56,508.818,61.307z M538.594,171.874c0,0-24.455-4.355-38.188-21.105" class="st3"/><path id="path3113" d="M337.934,150.098V136.7h55.609" class="st4"/><path id="path3115" d="M337.934,148.089h-8.373v-3.687h8.373v-3.349h-8.373v-3.686h8.373 M485.33,133.014 c0,0-18.758-26.129-4.02-66.663" class="st3"/><path id="path3117" d="M649.475,236.86v-37.184h-82.072v-21.271h82.574v22.361 M649.475,246.575v7.705 M649.475,263.325v8.04 M649.475,289.789v7.704 M649.475,306.204v6.699 M649.475,322.953v54.269h-93.797 M649.141,359.134H548.309" class="st4"/><path id="path3119" d="M632.727,318.599h-84.082 M632.393,280.41h-84.082 M633.061,259.306h-84.416 M632.727,239.541 h-84.416 M603.582,344.729v-25.795 M574.438,344.059v-25.46 M604.924,238.871v-25.125 M575.779,238.871v-24.454" class="st9"/><path id="path3121" d="M388.83,194.432h-19.096v12.813h19.096V194.432z" class="st3"/><path id="path3123" d="M170.606,353.773L165.832,349h-3.768v19.345H44.482v-5.024H37.95 M37.951,367.844v-16.582 M21.62,367.089v-16.581 M29.659,366.587v-16.582" class="st4"/><path id="path3125" d="M37.951,365.832h-16.58v-5.526h16.58v-5.024h-16.58v-4.523h16.58" class="st3"/><path id="path3127" d="M170.606,330.658l-4.774,4.774h-4.27v-17.839H57.547v-14.571h25.626V203.53H59.558v16.079 h-4.022l-4.771-4.773 M43.98,219.609H30.916v83.413h12.059v15.075H17.851v21.104h19.599 M17.851,339.201l-5.525,5.525 M77.145,317.092v-13.566 M221.358,255.286l4.02,4.02 M200.756,259.809l5.276-5.276H94.229 M97.244,238.201h17.084 M90.712,223.127 l4.02,4.02h6.029v-22.611h28.14v-11.557h-18.593V80.421 M111.313,64.342v-8.041h50.751v20.1h14.571V58.812h181.901v36.225 M358.537,99.014v8.038H302.95 M170.606,93.989l3.517-3.52h2.513v16.415h96.897 M277.931,106.885h14.655 M296.354,106.885h6.742 v60.551H265.24v-22.989h38.023 M148.497,87.959h16.081v104.014h-17.587v12.062h73.864 M164.074,107.052h-15.577 M164.577,98.008 H149" class="st4"/><path id="path3129" d="M159.553,106.551V87.959h-4.522v18.34h-4.523V88.46" class="st3"/><path id="path3131" d="M311.806,123.133v-16.081" class="st4"/><path id="path3133" d="M311.806,121.372h-8.543v-4.02h8.04v-3.518h-8.04v-3.516h8.543 M112.32,254.281v-15.577h-5.025 v15.577h-4.523v-15.577h-3.521v16.079" class="st3"/><path id="path3135" d="M114.327,245.738H96.741 M438.936,8.062h-15.076 M438.936,17.609h-15.076" class="st4"/><path id="path3137" d="M437.092,7.895v19.933h-4.188V8.062h-4.188v19.932h-4.02v-20.1 M426.541,108.559h-15.914v-3.182 h15.744v-3.182h-15.242v-3.518h15.074v-3.016h-15.576" class="st3"/><path id="path3299" d="M376.123,391.084v24.494" class="st9"/><path id="path3761" d="M303.264,123.51h-37.686V107.6 M284.42,144.446V107.18 M255.527,107.6v46.896h-20.937V107.6" class="st4"/><path id="path3789" d="M233.335,168.298c-5.559,0-10.067,4.507-10.067,10.066c0,5.561,4.509,10.067,10.067,10.067 c5.561,0,10.067-4.507,10.067-10.067C243.402,172.805,238.896,168.298,233.335,168.298z M215.329,143.609v-18.793 c0-3.481-2.851-6.332-6.331-6.332h-24.186c-3.482,0-6.332,2.851-6.332,6.332v59.36c0,3.481,2.85,6.331,6.332,6.331h24.186 c3.482,0,6.331-2.851,6.331-6.331v-19.003" class="st3"/><path id="path3791" d="M358.537,107.18v11.515 M358.537,122.463V136.7" class="st4"/><path id="path4069" d="M294.89,103.83v11.307 M275.628,104.248v9.841 M360.84,120.579h-10.678 M361.049,96.71h-11.305" class="st2"/><path id="path4099" d="M525.613,349.419v7.118 M525.613,341.883v7.118" class="st2"/><path id="path4149" d="M318.098,202.744h0.826c0.229,0,0.335,0.158,0.335,0.439v2.586c0,0.28-0.105,0.438-0.335,0.438 h-0.826V202.744z M317.677,215.055c-0.704-0.14-1.231-0.791-1.864-1.793c-0.738-1.16-0.809-3.271-0.809-4.362 c0-1.09,0.07-3.201,0.809-4.362c0.633-1.002,1.16-1.652,1.864-1.793v3.464c-0.247,0-0.512,0.106-0.633,0.546 c-0.124,0.422-0.159,0.967-0.159,2.146c0,1.178,0.035,1.723,0.159,2.145c0.121,0.439,0.386,0.545,0.633,0.545V215.055z M318.045,211.589h0.827c0.229,0,0.335,0.159,0.335,0.44v2.586c0,0.279-0.105,0.438-0.335,0.438h-0.827V211.589" class="st0"/><path id="path4151" d="M445.465,342.336l-0.068-0.07l6.588-23.111h0.068v15.27L445.465,342.336z M443.094,346.658 l0.07,0.07l8.891-10.668l8.922,10.668l0.07-0.07l-8.992-30.886L443.094,346.658L443.094,346.658z M453.695,303.081l1.188,0.21 v6.065l-6.033-6.695h-2.264v0.419l1.113,0.209v7.321l-1.113,0.208v0.42h3.172v-0.42l-1.221-0.208v-6.415 c1.359,1.465,5.648,6.204,6.484,7.112h0.697v-8.019l1.08-0.209v-0.419h-3.104V303.081" class="st0"/><path id="path4153" d="M313.379,221.242c-0.771-0.386-1.269-0.928-1.269-1.786c0-0.95,0.769-1.72,1.741-1.72 c0.996,0,1.721,0.791,1.721,1.742c0,0.881-0.432,1.355-1.336,1.762l0.634,0.022c1.559,0.069,1.989,1.154,1.989,2.512v3.257 c0,1.151-0.385,1.784-1.562,1.966v5.834h-3.119v-5.788c-1.153-0.092-1.515-0.883-1.515-1.832v-3.574 c0-1.355,0.542-2.396,2.282-2.396h0.433" class="st0"/><path id="path4155" d="M322.477,222.422c-0.769-0.385-1.267-0.927-1.267-1.786c0-0.949,0.769-1.719,1.74-1.719 c0.996,0,1.72,0.792,1.72,1.741c0,0.881-0.431,1.357-1.333,1.764l0.632,0.022c1.56,0.067,0.733,2.409,0.733,3.767l1.257,3.255 c0,1.153-0.386,0.53-1.562,0.71l-1.256,4.578h-0.607l-1.256-4.532c-1.154-0.089-1.516,0.375-1.516-0.575l1.257-3.572 c0-1.356-0.714-3.652,1.025-3.652H322.477" class="st0"/><path id="path4157" d="M321.21,221.324h3.517" class="st7"/><path id="path4159" d="M318.309,217.056v17.923" class="st2"/><path id="path4161" d="M293.212,128.211h0.825c0.229,0,0.335,0.16,0.335,0.441v2.585c0,0.281-0.106,0.439-0.335,0.439 h-0.825V128.211z M292.789,140.523c-0.703-0.141-1.23-0.791-1.865-1.793c-0.738-1.162-0.809-3.27-0.809-4.362 c0-1.091,0.07-3.2,0.809-4.362c0.635-1.002,1.162-1.654,1.865-1.795v3.466c-0.245,0-0.51,0.105-0.633,0.546 c-0.123,0.422-0.158,0.966-0.158,2.145c0,1.178,0.035,1.724,0.158,2.146c0.123,0.439,0.388,0.545,0.633,0.545V140.523z M293.158,137.059h0.827c0.229,0,0.333,0.158,0.333,0.438v2.587c0,0.279-0.104,0.438-0.333,0.438h-0.827V137.059" class="st0"/><path id="path4163" d="M268.311,129.252c-0.77-0.386-1.268-0.927-1.268-1.786c0-0.951,0.769-1.719,1.741-1.719 c0.995,0,1.72,0.79,1.72,1.74c0,0.882-0.431,1.356-1.334,1.764l0.633,0.022c1.56,0.066,1.988,1.152,1.988,2.509v3.258 c0,1.153-0.385,1.786-1.561,1.966v5.834h-3.121v-5.788c-1.152-0.091-1.513-0.882-1.513-1.83v-3.573 c0-1.357,0.541-2.397,2.282-2.397L268.311,129.252" class="st0"/><path id="path4165" d="M277.41,130.431c-0.77-0.383-1.267-0.926-1.267-1.786c0-0.949,0.77-1.719,1.741-1.719 c0.995,0,1.719,0.792,1.719,1.741c0,0.884-0.43,1.357-1.334,1.764l0.634,0.022c1.56,0.068,0.731,2.41,0.731,3.767l1.256,3.257 c0,1.152-0.383,0.529-1.56,0.709l-1.257,4.579h-0.606l-1.257-4.532c-1.154-0.09-1.515,0.373-1.515-0.576l1.256-3.571 c0-1.357-0.715-3.654,1.028-3.654H277.41" class="st0"/><path id="path4167" d="M276.144,129.334h3.518" class="st8"/><path id="path4169" d="M273.24,125.064v17.924" class="st2"/><path id="path4171" d="M661.162,307.078h0.826c0.229,0,0.334,0.158,0.334,0.439v2.586c0,0.281-0.105,0.438-0.334,0.438 h-0.826V307.078z M660.74,319.389c-0.705-0.14-1.23-0.791-1.865-1.793c-0.738-1.16-0.809-3.271-0.809-4.361 c0-1.092,0.07-3.202,0.809-4.364c0.635-1.001,1.16-1.652,1.865-1.793v3.464c-0.246,0-0.512,0.107-0.633,0.546 c-0.123,0.422-0.158,0.967-0.158,2.146c0,1.18,0.035,1.725,0.158,2.146c0.123,0.439,0.387,0.545,0.633,0.545V319.389z M661.109,315.925h0.826c0.227,0,0.334,0.158,0.334,0.44v2.585c0,0.281-0.105,0.439-0.334,0.439h-0.826V315.925" class="st0"/><path id="path4173" d="M656.463,325.576c-0.771-0.385-1.27-0.928-1.27-1.786c0-0.95,0.77-1.719,1.742-1.719 c0.996,0,1.719,0.791,1.719,1.74c0,0.881-0.43,1.356-1.334,1.765l0.633,0.021c1.561,0.067,1.99,1.152,1.99,2.51v3.258 c0,1.152-0.385,1.786-1.562,1.967v5.833h-3.119v-5.788c-1.152-0.09-1.514-0.882-1.514-1.831v-3.574 c0-1.354,0.543-2.396,2.283-2.396H656.463" class="st0"/><path id="path4175" d="M665.561,326.758c-0.77-0.385-1.266-0.929-1.266-1.786c0-0.949,0.77-1.721,1.742-1.721 c0.992,0,1.717,0.792,1.717,1.741c0,0.882-0.432,1.357-1.334,1.763l0.633,0.024c1.559,0.067,0.732,2.408,0.732,3.766l1.258,3.256 c0,1.152-0.385,0.53-1.562,0.711l-1.256,4.577h-0.607l-1.256-4.532c-1.152-0.09-1.516,0.373-1.516-0.576l1.258-3.572 c0-1.357-0.715-3.653,1.025-3.653h0.432" class="st0"/><path id="path4177" d="M664.295,325.658h3.518" class="st7"/><path id="path4179" d="M661.393,321.391v17.922" class="st2"/><path id="path4181" d="M660.877,212.432h0.828c0.227,0,0.332,0.158,0.332,0.439v2.585c0,0.281-0.105,0.438-0.332,0.438 h-0.828V212.432z M660.455,224.742c-0.703-0.141-1.232-0.791-1.865-1.793c-0.738-1.161-0.809-3.271-0.809-4.361 c0-1.092,0.07-3.202,0.809-4.363c0.633-1.002,1.16-1.653,1.865-1.794v3.464c-0.246,0-0.51,0.105-0.633,0.547 c-0.123,0.422-0.158,0.967-0.158,2.146c0,1.176,0.035,1.723,0.158,2.145c0.123,0.439,0.387,0.545,0.633,0.545V224.742z M660.824,221.277h0.826c0.229,0,0.336,0.159,0.336,0.44v2.585c0,0.28-0.107,0.438-0.336,0.438h-0.826V221.277" class="st0"/><path id="path4183" d="M656.158,230.931c-0.771-0.384-1.27-0.927-1.27-1.786c0-0.95,0.77-1.719,1.742-1.719 c0.994,0,1.721,0.792,1.721,1.74c0,0.883-0.432,1.358-1.336,1.765l0.633,0.022c1.561,0.066,1.99,1.152,1.99,2.51v3.256 c0,1.154-0.385,1.787-1.562,1.968v5.833h-3.119v-5.789c-1.152-0.09-1.516-0.881-1.516-1.83v-3.574c0-1.355,0.543-2.396,2.285-2.396 L656.158,230.931" class="st0"/><path id="path4185" d="M665.256,232.112c-0.77-0.385-1.268-0.927-1.268-1.786c0-0.95,0.77-1.719,1.744-1.719 c0.992,0,1.717,0.792,1.717,1.742c0,0.881-0.43,1.355-1.334,1.763l0.633,0.022c1.562,0.067,0.734,2.41,0.734,3.766l1.256,3.256 c0,1.154-0.385,0.531-1.561,0.711l-1.256,4.578h-0.607l-1.256-4.533c-1.154-0.089-1.516,0.375-1.516-0.575l1.256-3.573 c0-1.357-0.713-3.654,1.027-3.654h0.43" class="st0"/><path id="path4187" d="M663.988,231.014h3.518" class="st7"/><path id="path4189" d="M661.088,226.745v17.923" class="st2"/><path id="path4191" d="M595.037,72.08c0,4.162-3.373,7.537-7.537,7.537c-4.162,0-7.537-3.375-7.537-7.537 c0-4.163,3.375-7.538,7.537-7.538C591.664,64.542,595.037,67.917,595.037,72.08z" class="st2"/><path id="path4193" d="M587.693,67.934c0.859,0,1.436,0.042,1.73,0.125c0.424,0.122,0.76,0.355,1.006,0.701 c0.246,0.345,0.369,0.775,0.369,1.29c0,0.469-0.107,0.88-0.318,1.229c-0.211,0.352-0.479,0.597-0.801,0.738 c-0.322,0.145-0.887,0.213-1.689,0.213h-1.588v-4.297H587.693L587.693,67.934z M583.713,67.757h0.244 c0.355,0,0.594,0.025,0.713,0.077c0.123,0.051,0.209,0.131,0.262,0.24c0.051,0.11,0.076,0.324,0.076,0.645v7.047 c0,0.324-0.027,0.545-0.084,0.66c-0.059,0.116-0.148,0.203-0.271,0.257c-0.123,0.057-0.354,0.082-0.695,0.082h-0.244v0.628h3.984 v-0.628h-0.355c-0.316,0-0.525-0.026-0.629-0.082s-0.186-0.155-0.244-0.296c-0.045-0.104-0.066-0.35-0.066-0.738v-2.611h1.883 c1.07,0,1.855-0.11,2.355-0.329c0.5-0.218,0.924-0.589,1.273-1.112c0.289-0.433,0.436-0.949,0.436-1.543 c0-0.7-0.191-1.276-0.572-1.729c-0.381-0.453-0.863-0.772-1.449-0.959c-0.467-0.159-1.316-0.236-2.551-0.236h-4.064V67.757" class="st0"/><path id="path4195" d="M639.254,79.039h0.828c0.227,0,0.334,0.158,0.334,0.439v2.586c0,0.281-0.105,0.439-0.334,0.439 h-0.828V79.039L639.254,79.039z M638.832,91.35c-0.703-0.142-1.23-0.791-1.865-1.793c-0.736-1.16-0.809-3.27-0.809-4.361 c0-1.091,0.072-3.2,0.809-4.361c0.635-1.004,1.162-1.654,1.865-1.795v3.465c-0.246,0-0.51,0.105-0.633,0.546 c-0.123,0.422-0.158,0.967-0.158,2.146c0,1.177,0.035,1.723,0.158,2.145c0.123,0.439,0.387,0.545,0.633,0.545V91.35z M639.201,87.885h0.826c0.229,0,0.334,0.159,0.334,0.44v2.585c0,0.28-0.105,0.438-0.334,0.438h-0.826V87.885" class="st0"/><path id="path4197" d="M632.482,100.416c-0.768-0.384-1.266-0.929-1.266-1.786c0-0.95,0.768-1.721,1.74-1.721 c0.996,0,1.721,0.792,1.721,1.743c0,0.881-0.432,1.355-1.336,1.762l0.633,0.022c1.561,0.068,1.99,1.153,1.99,2.509v3.257 c0,1.154-0.383,1.788-1.561,1.968v5.834h-3.121v-5.788c-1.152-0.091-1.514-0.882-1.514-1.831v-3.574 c0-1.355,0.543-2.396,2.283-2.396h0.43" class="st0"/><path id="path4199" d="M641.582,101.596c-0.77-0.383-1.266-0.925-1.266-1.786c0-0.95,0.768-1.719,1.74-1.719 c0.994,0,1.719,0.792,1.719,1.742c0,0.882-0.43,1.356-1.334,1.763l0.633,0.022c1.559,0.067,0.734,2.41,0.734,3.767l1.256,3.255 c0,1.154-0.385,0.532-1.561,0.714l-1.256,4.576h-0.607l-1.256-4.534c-1.154-0.088-1.516,0.376-1.516-0.574l1.256-3.573 c0-1.355-0.713-3.652,1.027-3.652H641.582" class="st0"/><path id="path4201" d="M640.316,100.499h3.518" class="st7"/><path id="path4203" d="M637.414,96.229v17.924" class="st2"/><path id="path4205" d="M99.699,131.436c0,4.162-3.375,7.537-7.537,7.537c-4.163,0-7.537-3.375-7.537-7.537 c0-4.163,3.374-7.538,7.537-7.538C96.324,123.897,99.699,127.272,99.699,131.436z" class="st2"/><path id="path4207" d="M92.357,127.289c0.856,0,1.432,0.042,1.727,0.124c0.425,0.123,0.759,0.356,1.007,0.702 c0.245,0.345,0.369,0.775,0.369,1.29c0,0.469-0.106,0.88-0.317,1.229c-0.212,0.352-0.479,0.597-0.801,0.738 c-0.324,0.145-0.886,0.213-1.69,0.213h-1.588v-4.298L92.357,127.289L92.357,127.289z M88.375,127.112h0.245 c0.353,0,0.593,0.025,0.712,0.076c0.12,0.052,0.209,0.131,0.26,0.24c0.05,0.111,0.078,0.325,0.078,0.646v7.047 c0,0.324-0.028,0.545-0.086,0.66c-0.056,0.115-0.147,0.202-0.271,0.257c-0.122,0.057-0.354,0.083-0.692,0.083h-0.245v0.627h3.983 v-0.627h-0.356c-0.313,0-0.523-0.029-0.628-0.083c-0.104-0.056-0.186-0.155-0.244-0.298c-0.045-0.103-0.066-0.348-0.066-0.738 v-2.609h1.882c1.072,0,1.857-0.11,2.358-0.329c0.499-0.22,0.923-0.589,1.272-1.112c0.289-0.433,0.435-0.949,0.435-1.543 c0-0.7-0.191-1.276-0.569-1.729c-0.382-0.453-0.865-0.772-1.45-0.959c-0.467-0.159-1.319-0.236-2.553-0.236h-4.063L88.375,127.112" class="st0"/><path id="path4209" d="M199.803,43.108c0,4.163-3.374,7.536-7.537,7.536c-4.164,0-7.537-3.373-7.537-7.536 c0-4.162,3.373-7.537,7.537-7.537C196.429,35.571,199.803,38.946,199.803,43.108z" class="st2"/><path id="path4211" d="M192.46,38.961c0.857,0,1.433,0.043,1.728,0.126c0.425,0.122,0.759,0.354,1.006,0.7 c0.245,0.345,0.371,0.776,0.371,1.291c0,0.469-0.107,0.881-0.318,1.229c-0.213,0.352-0.481,0.597-0.8,0.74 c-0.325,0.143-0.888,0.213-1.691,0.213h-1.588v-4.3L192.46,38.961L192.46,38.961z M188.478,38.784h0.246 c0.353,0,0.592,0.026,0.712,0.076c0.12,0.052,0.209,0.133,0.259,0.241c0.053,0.111,0.079,0.325,0.079,0.646v7.046 c0,0.323-0.027,0.544-0.085,0.66c-0.058,0.117-0.147,0.204-0.271,0.259c-0.123,0.054-0.354,0.082-0.694,0.082h-0.245v0.627h3.984 v-0.627h-0.355c-0.315,0-0.525-0.029-0.63-0.084c-0.103-0.057-0.184-0.155-0.243-0.297c-0.044-0.104-0.066-0.348-0.066-0.738 v-2.611h1.883c1.073,0,1.857-0.108,2.357-0.329c0.499-0.218,0.922-0.588,1.272-1.11c0.29-0.434,0.435-0.949,0.435-1.544 c0-0.699-0.191-1.274-0.571-1.729c-0.381-0.452-0.864-0.773-1.447-0.96c-0.469-0.156-1.321-0.236-2.556-0.236h-4.062 L188.478,38.784" class="st0"/><path id="path4213" d="M105.588,386.604c0,4.164-3.375,7.538-7.538,7.538c-4.165,0-7.537-3.374-7.537-7.538 c0-4.161,3.374-7.536,7.537-7.536S105.588,382.442,105.588,386.604z" class="st2"/><path id="path4215" d="M98.244,382.459c0.857,0,1.434,0.042,1.728,0.125c0.426,0.123,0.76,0.355,1.007,0.702 c0.244,0.345,0.37,0.774,0.37,1.289c0,0.47-0.106,0.882-0.317,1.23c-0.213,0.351-0.481,0.596-0.801,0.738 c-0.324,0.142-0.887,0.214-1.69,0.214h-1.588v-4.301h1.292V382.459z M94.263,382.281h0.245c0.353,0,0.593,0.025,0.712,0.077 c0.121,0.052,0.209,0.131,0.259,0.241c0.051,0.107,0.079,0.323,0.079,0.645v7.045c0,0.325-0.028,0.547-0.085,0.661 c-0.057,0.118-0.147,0.204-0.271,0.259c-0.123,0.056-0.354,0.082-0.694,0.082h-0.245v0.627h3.984v-0.627h-0.355 c-0.315,0-0.524-0.027-0.629-0.084c-0.104-0.055-0.185-0.154-0.244-0.297c-0.044-0.103-0.065-0.349-0.065-0.738v-2.61h1.882 c1.072,0,1.856-0.108,2.358-0.328c0.498-0.22,0.921-0.59,1.271-1.112c0.289-0.433,0.435-0.948,0.435-1.543 c0-0.7-0.192-1.275-0.572-1.729c-0.381-0.453-0.862-0.772-1.447-0.959c-0.468-0.158-1.319-0.238-2.555-0.238h-4.062V382.281" class="st0"/><path id="path4217" d="M647.43,43.707c0,4.163-3.375,7.538-7.537,7.538c-4.164,0-7.539-3.375-7.539-7.538 c0-4.162,3.375-7.537,7.539-7.537C644.055,36.17,647.43,39.545,647.43,43.707z" class="st2"/><path id="path4219" d="M640.086,39.562c0.857,0,1.434,0.042,1.729,0.125c0.424,0.122,0.758,0.355,1.006,0.701 c0.244,0.345,0.369,0.775,0.369,1.29c0,0.469-0.105,0.88-0.316,1.229c-0.213,0.352-0.48,0.598-0.805,0.738 c-0.32,0.144-0.885,0.213-1.688,0.213h-1.588v-4.297H640.086L640.086,39.562z M636.104,39.385h0.244 c0.355,0,0.594,0.025,0.715,0.077c0.119,0.049,0.209,0.131,0.26,0.24c0.051,0.11,0.076,0.324,0.076,0.645v7.046 c0,0.325-0.027,0.545-0.084,0.662s-0.146,0.202-0.27,0.257c-0.125,0.054-0.357,0.081-0.697,0.081h-0.244v0.628h3.984v-0.628h-0.354 c-0.316,0-0.525-0.027-0.631-0.083c-0.102-0.056-0.184-0.153-0.242-0.296c-0.045-0.104-0.066-0.349-0.066-0.738v-2.611h1.881 c1.074,0,1.859-0.109,2.357-0.328s0.922-0.591,1.273-1.112c0.289-0.434,0.434-0.947,0.434-1.542c0-0.7-0.189-1.276-0.57-1.729 c-0.381-0.454-0.863-0.773-1.449-0.96c-0.467-0.158-1.32-0.238-2.553-0.238h-4.064V39.385" class="st0"/><path id="path4221" d="M639.477,154.99c0,4.162-3.375,7.537-7.537,7.537s-7.537-3.375-7.537-7.537 c0-4.163,3.375-7.537,7.537-7.537S639.477,150.827,639.477,154.99z" class="st2"/><path id="path4223" d="M632.135,150.845c0.857,0,1.432,0.041,1.729,0.124c0.424,0.123,0.758,0.355,1.004,0.701 c0.246,0.345,0.369,0.775,0.369,1.29c0,0.469-0.105,0.88-0.316,1.23c-0.213,0.351-0.48,0.596-0.803,0.738 c-0.322,0.144-0.885,0.214-1.688,0.214h-1.59v-4.299L632.135,150.845L632.135,150.845z M628.152,150.667h0.244 c0.354,0,0.592,0.025,0.715,0.077c0.119,0.051,0.207,0.131,0.258,0.24c0.051,0.11,0.078,0.326,0.078,0.645v7.048 c0,0.323-0.029,0.544-0.084,0.661c-0.057,0.114-0.146,0.201-0.271,0.256c-0.123,0.056-0.355,0.082-0.695,0.082h-0.244v0.629h3.984 v-0.629h-0.354c-0.318,0-0.527-0.027-0.631-0.083c-0.104-0.055-0.186-0.155-0.244-0.296c-0.045-0.104-0.066-0.35-0.066-0.738 v-2.611h1.881c1.072,0,1.857-0.11,2.359-0.329c0.498-0.218,0.922-0.589,1.271-1.112c0.289-0.433,0.436-0.949,0.436-1.542 c0-0.7-0.189-1.276-0.572-1.729c-0.379-0.454-0.863-0.773-1.449-0.96c-0.467-0.158-1.318-0.236-2.551-0.236h-4.064V150.667" class="st0"/><path id="path4225" d="M698.361,349.309c0,4.163-3.375,7.538-7.537,7.538s-7.537-3.375-7.537-7.538 c0-4.162,3.375-7.537,7.537-7.537S698.361,345.146,698.361,349.309z" class="st2"/><path id="path4227" d="M691.018,345.162c0.859,0,1.434,0.042,1.73,0.125c0.422,0.124,0.758,0.356,1.004,0.702 c0.248,0.343,0.369,0.774,0.369,1.29c0,0.469-0.105,0.881-0.316,1.229c-0.213,0.351-0.479,0.598-0.801,0.739 c-0.324,0.143-0.887,0.213-1.689,0.213h-1.59v-4.299H691.018L691.018,345.162z M687.037,344.984h0.244 c0.355,0,0.592,0.026,0.713,0.078c0.121,0.05,0.209,0.131,0.258,0.238c0.053,0.111,0.08,0.326,0.08,0.647v7.045 c0,0.323-0.029,0.545-0.086,0.661c-0.057,0.117-0.148,0.203-0.27,0.258c-0.125,0.055-0.357,0.082-0.697,0.082h-0.246v0.628h3.988 v-0.628h-0.357c-0.316,0-0.525-0.028-0.629-0.084c-0.104-0.057-0.186-0.155-0.244-0.297c-0.045-0.102-0.066-0.348-0.066-0.738 v-2.611h1.883c1.07,0,1.855-0.108,2.357-0.329c0.498-0.218,0.92-0.588,1.271-1.11c0.289-0.434,0.436-0.949,0.436-1.543 c0-0.7-0.191-1.275-0.572-1.729c-0.381-0.452-0.861-0.773-1.447-0.958c-0.469-0.158-1.318-0.238-2.553-0.238h-4.066v0.629" class="st0"/><path id="path4229" d="M383.041,204.733h-7.539v-7.537h7.539V204.733z M383.041,197.196l-7.539,7.537 M383.041,204.733 l-7.383-7.382 M445.215,115.346h-7.537v-7.538h7.537V115.346z M445.215,107.808l-7.537,7.538 M445.215,115.346l-7.381-7.381 M195.857,291.843h-7.537v-7.538h7.537V291.843z M195.857,284.305l-7.537,7.538 M195.857,291.843l-7.381-7.381 M71.493,314.14 h-7.538v-7.537h7.538V314.14z M71.493,306.603l-7.538,7.537 M71.493,314.14l-7.381-7.38 M633.646,120.057h7.537v7.536h-7.537 V120.057z M633.646,127.593l7.537-7.536 M633.646,120.057l7.383,7.38" class="st1"/><path id="path4231" d="M647.006,57.494v15.831 M631.596,57.494v16.082 M639.635,57.831v15.744" class="st4"/><path id="path4233" d="M631.428,59.172h15.912v3.182h-15.744v3.183h15.24v3.518h-15.074v3.015h15.578" class="st3"/><path id="path4309" d="M623.598,23.642h73.488V133.56h-73.488V23.642z" class="st1"/><path id="path4311" d="M623.598,23.642h73.365v9.396h-73.365V23.642z" class="st0"/><path id="path4423" d="M57.237,118.024H47.25c0.49,0.478,1.545,1.758,2.148,2.513l-0.44,0.439 c-1.093-1.295-1.972-2.174-3.153-3.304c1.182-1.131,2.061-2.01,3.153-3.303l0.44,0.438c-0.604,0.754-1.658,2.035-2.148,2.513h9.987 V118.024" class="st0"/><path id="path4467" d="M262.562,241.82v5.652" class="st6"/></g><text style="font-size:10px;font-style:normal;font-variant:normal;font-weight:400;font-stretch:normal;text-align:center;line-height:125%;letter-spacing:0;word-spacing:0;text-anchor:middle;fill:#000;fill-opacity:1;stroke:none;font-family:Verdana;-inkscape-font-specification:Verdana" id="text3244" x="660.244" y="30.805" xml:space="preserve"><tspan id="tspan3246" x="660.244" y="30.805" style="font-size:10px;text-align:center;text-anchor:middle;fill:#fff">Legend</tspan></text><text style="font-size:9px;font-style:normal;font-variant:normal;font-weight:400;font-stretch:normal;text-align:start;line-height:125%;letter-spacing:0;word-spacing:0;text-anchor:start;fill:#000;fill-opacity:1;stroke:none;font-family:Verdana;-inkscape-font-specification:Verdana" id="text3248" x="649.837" y="46.378" xml:space="preserve"><tspan id="tspan3250" x="649.837" y="46.378">Parking</tspan></text><text style="font-size:9px;font-style:normal;font-variant:normal;font-weight:400;font-stretch:normal;text-align:start;line-height:125%;letter-spacing:0;word-spacing:0;text-anchor:start;fill:#000;fill-opacity:1;stroke:none;font-family:Verdana;-inkscape-font-specification:Verdana" id="text3248-8" x="650.127" y="68.884" xml:space="preserve"><tspan id="tspan3250-9" x="650.127" y="68.884">Stairs</tspan></text><text style="font-size:9px;font-style:normal;font-variant:normal;font-weight:400;font-stretch:normal;text-align:start;line-height:125%;letter-spacing:0;word-spacing:0;text-anchor:start;fill:#000;fill-opacity:1;stroke:none;font-family:Verdana;-inkscape-font-specification:Verdana" id="text3248-0" x="649.837" y="88.545" xml:space="preserve"><tspan id="tspan3250-2" x="649.837" y="88.545">Phones</tspan></text><text style="font-size:9px;font-style:normal;font-variant:normal;font-weight:400;font-stretch:normal;text-align:start;line-height:125%;letter-spacing:0;word-spacing:0;text-anchor:start;fill:#000;fill-opacity:1;stroke:none;font-family:Verdana;-inkscape-font-specification:Verdana" id="text3248-4" x="649.837" y="108.66" xml:space="preserve"><tspan id="tspan3250-7" x="649.837" y="108.66">Restooms</tspan></text><text style="font-size:9px;font-style:normal;font-variant:normal;font-weight:400;font-stretch:normal;text-align:start;line-height:125%;letter-spacing:0;word-spacing:0;text-anchor:start;fill:#000;fill-opacity:1;stroke:none;font-family:Verdana;-inkscape-font-specification:Verdana" id="text3248-6" x="649.837" y="126.333" xml:space="preserve"><tspan id="tspan3250-5" x="649.837" y="126.333">Elevators</tspan></text><text x="361" y="180">Lobby</text><text x="197" y="157">Pool</text><path d="m 357.30252,248.65451 0,16.78603" style="fill:none;stroke:#000;stroke-width:1px;stroke-linecap:butt;stroke-linejoin:miter;stroke-opacity:1"/><script id="script261" xlink:href="../js/map.js"/></svg>